<svg id="svg" version="1.1" xmlns="http://www.w3.org/2000/svg" xmlns:xlink="http://www.w3.org/1999/xlink" width="400" height="400" viewBox="0, 0, 400,400"><g id="svgg"><path id="path0" d="M95.386 77.765 C 95.005 78.347,90.210 83.340,84.732 88.860 C 75.020 98.647,74.787 98.920,75.371 99.812 C 75.700 100.314,76.175 101.541,76.426 102.537 C 76.677 103.533,77.403 104.932,78.041 105.646 C 78.678 106.360,79.200 107.118,79.200 107.331 C 79.200 107.923,81.955 111.983,83.725 114.000 C 84.594 114.990,85.569 116.430,85.891 117.200 C 86.213 117.970,86.892 118.960,87.400 119.400 C 88.198 120.091,92.096 124.603,94.915 128.098 C 95.402 128.702,96.340 129.807,97.000 130.554 C 97.660 131.301,99.190 133.052,100.400 134.446 C 101.610 135.839,116.370 150.802,133.200 167.696 C 163.478 198.089,163.800 198.429,163.800 200.006 C 163.800 201.584,163.480 201.922,134.200 231.309 C 117.920 247.648,103.717 261.986,102.637 263.170 C 100.178 265.867,91.406 276.128,89.800 278.186 C 89.140 279.032,88.015 280.265,87.300 280.926 C 86.585 281.588,86.000 282.353,86.000 282.628 C 86.000 282.903,85.235 284.067,84.300 285.216 C 82.098 287.919,79.222 292.088,79.205 292.600 C 79.198 292.820,78.564 293.790,77.796 294.756 C 77.028 295.722,76.392 296.892,76.382 297.356 C 76.373 297.820,76.115 298.900,75.810 299.756 C 75.045 301.905,74.946 301.780,86.449 313.251 C 97.370 324.143,96.859 323.821,99.927 321.740 C 100.688 321.223,101.532 320.800,101.802 320.800 C 102.072 320.800,102.721 320.465,103.246 320.055 C 103.771 319.645,104.650 319.177,105.200 319.015 C 105.750 318.852,106.650 318.289,107.200 317.764 C 109.017 316.027,110.710 314.797,112.064 314.231 C 112.799 313.924,114.327 312.801,115.461 311.736 C 116.594 310.671,118.544 308.990,119.794 308.000 C 122.608 305.771,124.170 304.492,125.655 303.200 C 126.287 302.650,127.356 301.750,128.030 301.200 C 131.313 298.523,137.248 292.723,165.689 264.400 C 194.507 235.702,196.503 233.800,197.799 233.800 C 199.095 233.800,201.096 235.709,230.090 264.603 C 247.091 281.544,262.155 296.394,263.566 297.603 C 264.977 298.811,266.560 300.205,267.084 300.700 C 267.608 301.195,268.131 301.600,268.246 301.600 C 268.479 301.600,272.973 305.462,275.129 307.515 C 275.889 308.239,277.481 309.474,278.666 310.261 C 279.851 311.048,281.011 312.046,281.243 312.480 C 281.475 312.913,282.325 313.544,283.132 313.881 C 283.939 314.218,285.184 314.968,285.898 315.547 C 286.611 316.126,287.806 317.095,288.552 317.700 C 289.299 318.305,290.065 318.801,290.255 318.803 C 290.445 318.804,292.040 319.523,293.800 320.400 C 297.108 322.049,298.625 322.324,300.126 321.549 C 301.384 320.899,317.871 304.476,318.999 302.750 L 319.947 301.300 319.247 298.485 C 318.862 296.936,318.064 295.036,317.474 294.261 C 316.883 293.487,316.400 292.599,316.400 292.289 C 316.400 291.978,316.021 291.381,315.557 290.962 C 315.094 290.543,314.393 289.570,314.000 288.800 C 313.606 288.030,312.631 286.707,311.832 285.861 C 311.034 285.015,310.094 283.768,309.744 283.091 C 309.393 282.414,307.939 280.496,306.511 278.830 C 303.991 275.889,302.560 274.182,300.699 271.895 C 296.534 266.777,289.520 259.550,261.100 231.090 C 244.325 214.292,231.571 201.215,231.533 200.775 C 231.497 200.349,231.452 199.735,231.433 199.410 C 231.415 199.086,245.080 185.085,261.800 168.297 C 291.956 138.020,297.057 132.756,300.709 128.147 C 301.209 127.516,302.227 126.280,302.971 125.400 C 307.394 120.167,308.700 118.555,309.565 117.259 C 310.096 116.463,310.726 115.597,310.965 115.333 C 313.308 112.748,316.400 108.325,316.400 107.560 C 316.400 107.196,316.682 106.664,317.026 106.378 C 317.891 105.660,318.595 104.159,319.171 101.805 C 319.440 100.708,319.833 99.601,320.046 99.345 C 320.366 98.958,315.545 93.567,310.793 89.000 C 310.564 88.780,308.267 86.514,305.689 83.965 C 300.133 78.474,299.216 77.810,297.703 78.186 C 295.944 78.622,288.400 82.367,288.400 82.804 C 288.400 83.022,288.131 83.200,287.801 83.200 C 287.472 83.200,286.527 83.806,285.701 84.547 C 284.876 85.288,283.815 86.013,283.345 86.160 C 282.875 86.306,281.705 87.187,280.745 88.119 C 279.785 89.051,278.433 90.170,277.740 90.606 C 276.633 91.303,274.106 93.422,265.652 100.741 C 260.435 105.257,257.003 108.607,228.907 136.600 C 202.530 162.881,199.047 166.214,197.848 166.321 C 196.547 166.438,195.418 165.365,167.136 137.121 C 140.824 110.846,131.811 102.031,128.282 99.122 C 127.667 98.615,126.564 97.660,125.832 97.000 C 125.100 96.340,123.911 95.350,123.190 94.800 C 122.469 94.250,121.232 93.235,120.440 92.544 C 119.648 91.854,118.066 90.588,116.925 89.730 C 115.784 88.873,114.485 87.707,114.037 87.138 C 113.590 86.570,112.724 85.996,112.112 85.863 C 111.500 85.730,109.814 84.650,108.364 83.463 C 106.915 82.276,105.070 81.087,104.264 80.821 C 103.459 80.555,102.800 80.172,102.800 79.969 C 102.800 79.766,102.516 79.600,102.169 79.600 C 101.822 79.600,100.977 79.038,100.290 78.351 C 98.518 76.580,96.334 76.318,95.386 77.765 " stroke="none" fill="#070707" fill-rule="evenodd"></path><path id="path1" d="M0.000 200.000 L 0.000 400.000 200.000 400.000 L 400.000 400.000 400.000 200.000 L 400.000 0.000 200.000 0.000 L 0.000 0.000 0.000 200.000 M310.657 85.700 L 322.006 97.000 322.003 99.311 C 321.999 102.062,319.741 107.374,318.394 107.802 C 317.907 107.956,317.600 108.408,317.600 108.968 C 317.600 109.470,317.154 110.493,316.609 111.241 C 316.064 111.988,315.311 113.185,314.935 113.900 C 314.559 114.615,314.135 115.200,313.993 115.200 C 313.851 115.200,313.180 116.055,312.503 117.100 C 311.825 118.145,310.445 119.874,309.435 120.942 C 308.426 122.010,307.600 123.056,307.600 123.265 C 307.600 123.897,305.130 126.768,304.382 127.006 C 303.999 127.127,303.473 127.741,303.213 128.369 C 302.952 128.998,301.718 130.588,300.470 131.902 C 299.221 133.216,296.580 136.033,294.600 138.161 C 292.620 140.290,290.667 142.366,290.260 142.775 C 289.853 143.185,289.372 143.673,289.191 143.860 C 287.824 145.271,273.911 159.473,273.633 159.740 C 273.096 160.258,271.734 161.623,271.241 162.140 C 270.669 162.739,262.625 170.783,262.090 171.290 C 261.634 171.724,260.265 173.087,259.740 173.633 C 259.316 174.073,243.547 189.841,243.000 190.372 C 242.517 190.841,240.911 192.445,240.370 193.000 C 240.155 193.220,238.724 194.631,237.190 196.136 C 233.491 199.764,233.491 200.236,237.190 203.864 C 238.724 205.369,240.182 206.807,240.430 207.060 C 241.013 207.656,242.382 209.025,242.830 209.460 C 243.287 209.904,259.042 225.660,259.630 226.260 C 260.414 227.061,261.667 228.308,262.042 228.660 C 262.242 228.847,264.286 230.935,266.586 233.300 C 268.886 235.665,270.909 237.601,271.084 237.603 C 271.258 237.604,271.707 238.144,272.081 238.803 C 272.456 239.461,273.041 240.000,273.381 240.000 C 273.722 240.000,274.000 240.184,274.000 240.409 C 274.000 240.941,278.259 245.200,278.791 245.200 C 279.016 245.200,279.200 245.401,279.200 245.646 C 279.200 246.136,284.708 251.600,285.202 251.600 C 285.370 251.600,285.803 252.051,286.164 252.602 C 286.526 253.153,287.806 254.558,289.010 255.725 C 290.215 256.891,291.200 258.048,291.200 258.296 C 291.200 258.543,291.560 258.860,292.000 259.000 C 292.441 259.140,292.993 259.614,293.228 260.053 C 293.630 260.803,294.923 262.238,300.500 268.123 C 301.765 269.458,302.800 270.663,302.800 270.801 C 302.800 270.940,303.880 272.184,305.200 273.567 C 306.520 274.950,307.600 276.419,307.600 276.832 C 307.600 277.244,308.045 277.873,308.589 278.229 C 309.625 278.908,314.895 285.692,315.326 286.900 C 315.463 287.285,315.738 287.600,315.938 287.600 C 316.138 287.600,316.704 288.535,317.195 289.677 C 317.687 290.820,318.477 292.060,318.951 292.433 C 320.597 293.728,321.770 296.749,321.934 300.117 L 322.086 303.233 311.943 313.434 C 300.323 325.121,299.901 325.429,296.765 324.529 C 295.574 324.187,294.220 323.560,293.757 323.137 C 293.293 322.713,292.233 322.179,291.401 321.949 C 290.570 321.720,288.777 320.669,287.419 319.614 C 286.060 318.560,284.375 317.401,283.674 317.038 C 282.973 316.676,282.400 316.233,282.400 316.054 C 282.400 315.875,281.995 315.543,281.500 315.317 C 281.005 315.091,279.847 314.297,278.927 313.553 C 278.007 312.809,276.542 311.686,275.671 311.057 C 274.801 310.428,273.863 309.491,273.587 308.976 C 273.311 308.460,272.599 307.869,272.004 307.661 C 271.409 307.454,270.130 306.503,269.161 305.549 C 268.192 304.595,267.017 303.541,266.549 303.207 C 264.331 301.624,253.549 291.090,227.336 264.900 C 195.505 233.096,197.971 235.123,194.983 238.300 C 194.001 239.345,193.036 240.353,192.838 240.540 C 192.434 240.924,191.108 242.246,190.432 242.940 C 189.818 243.569,174.073 259.316,173.633 259.740 C 173.087 260.265,171.724 261.634,171.290 262.090 C 170.783 262.625,162.644 270.765,162.030 271.350 C 161.552 271.807,160.279 273.074,159.568 273.800 C 153.491 280.007,141.978 291.200,141.670 291.200 C 141.441 291.200,141.140 291.560,141.000 292.000 C 140.860 292.441,140.397 292.987,139.971 293.215 C 139.545 293.444,137.254 295.512,134.880 297.812 C 132.506 300.112,130.025 302.400,129.366 302.897 C 128.707 303.394,127.377 304.577,126.409 305.526 C 125.442 306.475,124.071 307.494,123.364 307.789 C 122.656 308.085,121.961 308.694,121.818 309.143 C 121.676 309.592,121.225 310.065,120.816 310.195 C 120.408 310.324,119.977 310.684,119.858 310.994 C 119.739 311.304,119.047 311.863,118.321 312.236 C 117.594 312.610,116.473 313.427,115.828 314.053 C 115.184 314.679,114.329 315.296,113.928 315.423 C 113.528 315.550,113.200 315.818,113.200 316.019 C 113.200 316.220,112.525 316.755,111.700 317.208 C 110.004 318.140,107.789 319.695,106.600 320.788 C 106.160 321.192,105.100 321.713,104.243 321.945 C 103.387 322.177,102.292 322.737,101.810 323.191 C 100.748 324.188,97.005 325.039,95.423 324.641 C 94.035 324.293,74.237 304.674,73.610 303.027 C 72.529 300.182,74.867 292.000,76.761 292.000 C 76.954 292.000,77.510 291.145,77.997 290.100 C 78.483 289.055,79.162 287.884,79.505 287.497 C 79.848 287.111,80.325 286.464,80.564 286.060 C 81.393 284.663,83.405 281.945,84.698 280.476 C 85.412 279.664,85.997 278.865,85.998 278.700 C 85.999 278.535,86.243 278.400,86.539 278.400 C 86.836 278.400,87.406 277.674,87.806 276.786 C 88.207 275.898,89.269 274.513,90.167 273.707 C 91.065 272.901,92.108 271.744,92.485 271.136 C 92.861 270.528,94.121 269.047,95.285 267.843 C 96.448 266.640,98.480 264.449,99.800 262.974 C 101.120 261.500,103.190 259.247,104.400 257.968 C 105.610 256.689,106.803 255.408,107.051 255.121 C 107.299 254.835,107.839 254.298,108.251 253.928 C 108.663 253.559,109.203 253.019,109.451 252.728 C 109.699 252.438,110.239 251.894,110.651 251.520 C 111.063 251.146,111.635 250.606,111.922 250.320 C 155.199 207.187,161.600 200.704,161.600 200.001 C 161.600 199.482,151.344 188.913,132.100 169.600 C 115.875 153.317,101.480 138.781,100.112 137.297 C 98.743 135.814,96.447 133.364,95.008 131.854 C 93.569 130.344,92.286 128.686,92.156 128.169 C 92.027 127.652,91.606 127.129,91.221 127.007 C 90.420 126.752,88.236 124.155,87.541 122.630 C 87.283 122.063,86.952 121.600,86.806 121.600 C 86.420 121.600,82.400 116.574,82.400 116.092 C 82.400 115.868,82.122 115.579,81.782 115.448 C 81.442 115.318,80.917 114.620,80.615 113.898 C 80.313 113.175,79.690 112.244,79.231 111.828 C 78.772 111.413,78.213 110.392,77.989 109.561 C 77.760 108.710,77.269 107.949,76.866 107.821 C 75.263 107.312,72.779 100.134,73.378 97.743 C 73.656 96.638,93.056 76.887,95.302 75.423 C 96.187 74.847,96.621 74.788,97.502 75.127 C 98.106 75.360,99.162 75.661,99.850 75.796 C 100.537 75.931,101.511 76.479,102.014 77.015 C 102.517 77.550,103.574 78.102,104.364 78.242 C 105.154 78.381,106.340 78.994,107.000 79.604 C 107.660 80.213,108.605 80.834,109.100 80.983 C 109.595 81.132,110.000 81.417,110.000 81.617 C 110.000 81.816,110.585 82.281,111.300 82.649 C 112.571 83.303,115.804 85.748,116.600 86.657 C 116.820 86.908,117.720 87.560,118.600 88.107 C 120.492 89.282,122.400 91.007,122.400 91.542 C 122.400 91.751,122.925 92.105,123.566 92.328 C 124.207 92.552,125.451 93.424,126.331 94.267 C 127.211 95.110,129.502 97.240,131.423 99.000 C 133.344 100.760,135.536 102.768,136.294 103.463 C 137.053 104.158,137.882 104.928,138.137 105.174 C 138.735 105.753,139.351 106.314,141.079 107.857 C 142.628 109.240,142.508 109.122,145.544 112.216 C 146.723 113.417,147.848 114.400,148.044 114.400 C 148.240 114.400,148.400 114.588,148.400 114.817 C 148.400 115.047,150.875 117.657,153.900 120.617 C 156.925 123.578,159.553 126.163,159.740 126.360 C 160.200 126.847,161.595 128.241,162.042 128.660 C 162.242 128.847,164.286 130.935,166.586 133.300 C 168.886 135.665,170.909 137.601,171.084 137.603 C 171.258 137.604,171.707 138.144,172.081 138.803 C 172.456 139.461,173.041 140.000,173.381 140.000 C 173.722 140.000,174.000 140.184,174.000 140.409 C 174.000 140.941,178.259 145.200,178.791 145.200 C 179.016 145.200,179.200 145.390,179.200 145.622 C 179.200 145.854,181.675 148.463,184.700 151.420 C 187.725 154.377,190.353 156.959,190.540 157.158 C 190.953 157.598,192.345 158.992,192.838 159.460 C 193.036 159.647,194.001 160.655,194.983 161.700 C 196.205 162.999,197.092 163.600,197.786 163.600 C 198.664 163.600,224.070 138.615,249.103 113.134 C 250.040 112.180,250.992 111.220,251.218 111.000 C 251.444 110.780,251.938 110.279,252.315 109.887 C 253.513 108.639,257.300 105.124,260.400 102.381 C 262.050 100.921,264.049 99.113,264.843 98.363 C 270.049 93.446,271.287 92.393,272.108 92.187 C 272.615 92.060,273.203 91.574,273.415 91.107 C 273.627 90.640,274.700 89.651,275.800 88.909 C 276.900 88.168,278.160 87.257,278.600 86.886 C 281.055 84.812,283.205 83.218,284.328 82.637 C 285.028 82.275,285.600 81.826,285.600 81.638 C 285.600 81.451,286.122 81.081,286.760 80.816 C 287.399 80.552,288.330 79.900,288.830 79.368 C 289.335 78.831,290.198 78.400,290.770 78.399 C 291.336 78.399,292.415 77.872,293.167 77.230 C 293.919 76.587,295.303 75.867,296.243 75.631 C 297.183 75.394,298.064 75.020,298.200 74.800 C 298.732 73.940,299.671 74.762,310.657 85.700 " stroke="none" fill="#d3d3d3" fill-rule="evenodd"></path><path id="path2" d="M85.403 86.776 C 79.465 92.736,74.497 97.923,74.364 98.304 C 74.023 99.275,75.897 104.307,77.257 106.070 C 77.880 106.879,78.613 108.049,78.886 108.670 C 79.419 109.884,81.756 113.417,82.677 114.400 C 82.986 114.730,83.995 116.020,84.920 117.268 C 88.078 121.530,89.922 123.861,91.062 125.031 C 91.688 125.674,92.686 126.850,93.278 127.644 C 93.871 128.439,95.041 129.823,95.878 130.721 C 96.715 131.619,98.210 133.305,99.200 134.468 C 101.409 137.063,118.081 153.938,143.591 179.400 C 162.598 198.370,162.826 198.618,162.714 200.084 C 162.608 201.470,160.569 203.607,132.185 232.084 C 115.456 248.868,100.786 263.757,99.585 265.171 C 98.383 266.585,96.701 268.475,95.847 269.371 C 94.992 270.267,93.822 271.629,93.247 272.397 C 92.671 273.166,91.435 274.602,90.500 275.590 C 89.565 276.578,88.800 277.524,88.800 277.692 C 88.800 277.860,88.194 278.673,87.452 279.499 C 85.184 282.025,79.200 290.110,79.200 290.647 C 79.200 290.788,78.485 291.950,77.611 293.230 C 75.937 295.683,74.400 299.628,74.400 301.472 C 74.400 303.544,95.519 324.169,97.251 323.789 C 98.895 323.428,105.706 319.906,107.556 318.460 C 109.649 316.825,111.880 315.284,113.096 314.635 C 113.703 314.310,114.740 313.537,115.400 312.917 C 116.060 312.296,117.410 311.175,118.400 310.425 C 119.390 309.675,120.385 308.842,120.612 308.574 C 120.839 308.306,121.919 307.405,123.012 306.570 C 125.183 304.914,130.513 300.350,131.820 299.029 C 132.270 298.573,135.060 295.917,138.020 293.126 C 140.979 290.335,155.368 276.070,169.996 261.426 C 193.488 237.908,196.734 234.800,197.804 234.800 C 198.862 234.800,200.698 236.485,212.296 248.100 C 251.140 287.001,265.918 301.469,267.930 302.565 C 268.299 302.765,268.743 303.168,268.917 303.460 C 269.092 303.751,270.622 305.069,272.317 306.388 C 274.013 307.707,276.660 309.873,278.200 311.202 C 279.740 312.531,281.513 313.929,282.140 314.309 C 282.767 314.689,284.477 315.883,285.940 316.961 C 289.034 319.242,295.574 322.763,297.600 323.238 C 299.613 323.710,300.489 323.020,310.393 313.157 C 321.694 301.903,322.033 301.374,320.198 297.854 C 319.869 297.224,319.600 296.479,319.600 296.199 C 319.600 295.919,318.970 294.774,318.200 293.655 C 317.430 292.535,316.800 291.493,316.800 291.339 C 316.800 290.911,313.969 286.755,312.755 285.400 C 312.163 284.740,311.198 283.480,310.611 282.600 C 310.023 281.720,308.968 280.370,308.267 279.600 C 307.566 278.830,306.696 277.738,306.334 277.172 C 305.973 276.607,304.939 275.378,304.038 274.440 C 303.137 273.502,302.398 272.614,302.396 272.467 C 302.393 272.320,301.628 271.372,300.696 270.359 C 299.763 269.347,297.749 267.097,296.219 265.359 C 294.690 263.622,279.840 248.560,263.219 231.889 C 235.400 203.986,232.990 201.463,232.872 200.122 C 232.745 198.682,233.069 198.339,261.513 169.833 C 289.382 141.902,296.266 134.899,297.918 132.800 C 298.351 132.250,299.457 130.990,300.377 130.000 C 301.297 129.010,302.313 127.705,302.635 127.100 C 302.957 126.495,303.369 126.000,303.550 126.000 C 303.888 126.000,308.512 120.334,310.541 117.432 C 311.169 116.534,312.166 115.260,312.756 114.600 C 314.178 113.011,316.800 109.057,316.800 108.501 C 316.800 108.259,317.227 107.553,317.749 106.931 C 318.631 105.880,320.455 101.725,320.911 99.731 C 321.233 98.319,320.159 97.054,310.551 87.528 C 299.231 76.304,299.255 76.325,297.756 76.758 C 295.073 77.533,288.521 81.211,285.000 83.918 C 284.780 84.087,283.880 84.657,283.000 85.185 C 282.120 85.713,280.860 86.643,280.200 87.251 C 278.777 88.562,276.082 90.751,272.100 93.829 C 270.505 95.062,269.200 96.206,269.200 96.372 C 269.200 96.537,268.592 97.106,267.849 97.636 C 264.727 99.863,257.029 107.322,228.896 135.378 C 203.025 161.178,199.025 165.015,197.896 165.113 C 196.669 165.221,195.241 163.865,171.200 139.790 C 145.631 114.183,132.893 101.761,128.400 98.051 C 128.070 97.778,126.813 96.665,125.607 95.578 C 124.400 94.490,123.272 93.600,123.099 93.600 C 122.927 93.600,122.204 93.005,121.493 92.279 C 120.782 91.552,119.210 90.226,118.000 89.332 C 116.790 88.438,115.471 87.338,115.070 86.888 C 114.668 86.438,113.211 85.410,111.831 84.603 C 110.452 83.797,108.838 82.687,108.245 82.137 C 107.652 81.587,105.780 80.426,104.084 79.557 C 102.388 78.688,100.546 77.618,99.991 77.178 C 97.145 74.925,97.341 74.796,85.403 86.776 M100.290 78.351 C 100.977 79.038,101.822 79.600,102.169 79.600 C 102.516 79.600,102.800 79.766,102.800 79.969 C 102.800 80.172,103.459 80.555,104.264 80.821 C 105.070 81.087,106.915 82.276,108.364 83.463 C 109.814 84.650,111.500 85.730,112.112 85.863 C 112.724 85.996,113.590 86.570,114.037 87.138 C 114.485 87.707,115.784 88.873,116.925 89.730 C 118.066 90.588,119.648 91.854,120.440 92.544 C 121.232 93.235,122.469 94.250,123.190 94.800 C 123.911 95.350,125.100 96.340,125.832 97.000 C 126.564 97.660,127.667 98.615,128.282 99.122 C 131.811 102.031,140.824 110.846,167.136 137.121 C 195.418 165.365,196.547 166.438,197.848 166.321 C 199.047 166.214,202.530 162.881,228.907 136.600 C 257.003 108.607,260.435 105.257,265.652 100.741 C 274.106 93.422,276.633 91.303,277.740 90.606 C 278.433 90.170,279.785 89.051,280.745 88.119 C 281.705 87.187,282.875 86.306,283.345 86.160 C 283.815 86.013,284.876 85.288,285.701 84.547 C 286.527 83.806,287.472 83.200,287.801 83.200 C 288.131 83.200,288.400 83.022,288.400 82.804 C 288.400 82.367,295.944 78.622,297.703 78.186 C 299.216 77.810,300.133 78.474,305.689 83.965 C 308.267 86.514,310.564 88.780,310.793 89.000 C 315.545 93.567,320.366 98.958,320.046 99.345 C 319.833 99.601,319.440 100.708,319.171 101.805 C 318.595 104.159,317.891 105.660,317.026 106.378 C 316.682 106.664,316.400 107.196,316.400 107.560 C 316.400 108.325,313.308 112.748,310.965 115.333 C 310.726 115.597,310.096 116.463,309.565 117.259 C 308.700 118.555,307.394 120.167,302.971 125.400 C 302.227 126.280,301.209 127.516,300.709 128.147 C 297.057 132.756,291.956 138.020,261.800 168.297 C 245.080 185.085,231.415 199.086,231.433 199.410 C 231.452 199.735,231.497 200.349,231.533 200.775 C 231.571 201.215,244.325 214.292,261.100 231.090 C 289.520 259.550,296.534 266.777,300.699 271.895 C 302.560 274.182,303.991 275.889,306.511 278.830 C 307.939 280.496,309.393 282.414,309.744 283.091 C 310.094 283.768,311.034 285.015,311.832 285.861 C 312.631 286.707,313.606 288.030,314.000 288.800 C 314.393 289.570,315.094 290.543,315.557 290.962 C 316.021 291.381,316.400 291.978,316.400 292.289 C 316.400 292.599,316.883 293.487,317.474 294.261 C 318.064 295.036,318.862 296.936,319.247 298.485 L 319.947 301.300 318.999 302.750 C 317.871 304.476,301.384 320.899,300.126 321.549 C 298.625 322.324,297.108 322.049,293.800 320.400 C 292.040 319.523,290.445 318.804,290.255 318.803 C 290.065 318.801,289.299 318.305,288.552 317.700 C 287.806 317.095,286.611 316.126,285.898 315.547 C 285.184 314.968,283.939 314.218,283.132 313.881 C 282.325 313.544,281.475 312.913,281.243 312.480 C 281.011 312.046,279.851 311.048,278.666 310.261 C 277.481 309.474,275.889 308.239,275.129 307.515 C 272.973 305.462,268.479 301.600,268.246 301.600 C 268.131 301.600,267.608 301.195,267.084 300.700 C 266.560 300.205,264.977 298.811,263.566 297.603 C 262.155 296.394,247.091 281.544,230.090 264.603 C 201.096 235.709,199.095 233.800,197.799 233.800 C 196.503 233.800,194.507 235.702,165.689 264.400 C 137.248 292.723,131.313 298.523,128.030 301.200 C 127.356 301.750,126.287 302.650,125.655 303.200 C 124.170 304.492,122.608 305.771,119.794 308.000 C 118.544 308.990,116.594 310.671,115.461 311.736 C 114.327 312.801,112.799 313.924,112.064 314.231 C 110.710 314.797,109.017 316.027,107.200 317.764 C 106.650 318.289,105.750 318.852,105.200 319.015 C 104.650 319.177,103.771 319.645,103.246 320.055 C 102.721 320.465,102.072 320.800,101.802 320.800 C 101.532 320.800,100.688 321.223,99.927 321.740 C 96.859 323.821,97.370 324.143,86.449 313.251 C 74.946 301.780,75.045 301.905,75.810 299.756 C 76.115 298.900,76.373 297.820,76.382 297.356 C 76.392 296.892,77.028 295.722,77.796 294.756 C 78.564 293.790,79.198 292.820,79.205 292.600 C 79.222 292.088,82.098 287.919,84.300 285.216 C 85.235 284.067,86.000 282.903,86.000 282.628 C 86.000 282.353,86.585 281.588,87.300 280.926 C 88.015 280.265,89.140 279.032,89.800 278.186 C 91.406 276.128,100.178 265.867,102.637 263.170 C 103.717 261.986,117.920 247.648,134.200 231.309 C 163.480 201.922,163.800 201.584,163.800 200.006 C 163.800 198.429,163.478 198.089,133.200 167.696 C 116.370 150.802,101.610 135.839,100.400 134.446 C 99.190 133.052,97.660 131.301,97.000 130.554 C 96.340 129.807,95.402 128.702,94.915 128.098 C 92.096 124.603,88.198 120.091,87.400 119.400 C 86.892 118.960,86.213 117.970,85.891 117.200 C 85.569 116.430,84.594 114.990,83.725 114.000 C 81.955 111.983,79.200 107.923,79.200 107.331 C 79.200 107.118,78.678 106.360,78.041 105.646 C 77.403 104.932,76.677 103.533,76.426 102.537 C 76.175 101.541,75.700 100.314,75.371 99.812 C 74.787 98.920,75.020 98.647,84.732 88.860 C 90.210 83.340,95.005 78.347,95.386 77.765 C 96.334 76.318,98.518 76.580,100.290 78.351 " stroke="none" fill="#646464" fill-rule="evenodd"></path><path id="path3" d="M297.600 76.441 C 297.125 76.780,297.202 76.825,297.966 76.655 C 299.155 76.391,299.862 76.948,306.175 83.127 C 308.801 85.697,310.729 87.503,310.459 87.140 C 309.596 85.978,301.977 78.449,300.403 77.203 C 298.733 75.880,298.481 75.811,297.600 76.441 M100.382 77.378 C 101.080 78.219,103.195 79.338,103.504 79.029 C 103.630 78.903,103.548 78.800,103.322 78.800 C 103.097 78.800,102.216 78.328,101.367 77.752 C 100.517 77.175,100.074 77.007,100.382 77.378 M294.300 77.877 C 293.256 78.458,292.461 78.994,292.535 79.068 C 292.608 79.142,293.643 78.665,294.834 78.008 C 296.025 77.352,296.820 76.816,296.600 76.817 C 296.380 76.818,295.345 77.295,294.300 77.877 M93.178 78.700 L 91.800 80.200 93.300 78.822 C 94.696 77.538,94.984 77.200,94.678 77.200 C 94.612 77.200,93.937 77.875,93.178 78.700 M104.400 79.621 C 105.442 80.330,107.200 81.228,107.200 81.050 C 107.200 80.828,104.439 79.198,104.077 79.206 C 103.925 79.209,104.070 79.396,104.400 79.621 M290.576 79.787 C 290.149 80.110,289.980 80.375,290.200 80.375 C 290.420 80.375,290.949 80.110,291.376 79.787 C 291.804 79.464,291.973 79.200,291.753 79.200 C 291.533 79.200,291.004 79.464,290.576 79.787 M85.795 86.100 L 80.200 91.800 85.900 86.205 C 91.195 81.008,91.781 80.400,91.495 80.400 C 91.437 80.400,88.872 82.965,85.795 86.100 M287.970 81.500 L 287.000 82.600 288.200 81.600 C 288.860 81.050,289.475 80.555,289.567 80.500 C 289.658 80.445,289.555 80.400,289.336 80.400 C 289.118 80.400,288.503 80.895,287.970 81.500 M108.400 82.162 C 108.400 82.272,109.210 82.919,110.200 83.600 C 111.190 84.281,112.000 84.748,112.000 84.638 C 112.000 84.528,111.190 83.881,110.200 83.200 C 109.210 82.519,108.400 82.052,108.400 82.162 M115.744 87.509 C 116.060 88.021,118.400 89.753,118.400 89.475 C 118.400 89.376,117.739 88.791,116.932 88.175 C 116.124 87.559,115.589 87.259,115.744 87.509 M278.000 88.643 C 277.010 89.413,275.660 90.537,275.000 91.140 C 274.340 91.742,273.170 92.675,272.400 93.212 C 270.269 94.699,269.166 95.718,268.736 96.600 C 268.401 97.287,268.449 97.275,269.073 96.516 C 269.746 95.697,271.132 94.557,277.960 89.206 C 279.367 88.103,280.357 87.209,280.160 87.221 C 279.962 87.232,278.990 87.872,278.000 88.643 M316.147 93.056 C 318.318 95.256,320.337 97.493,320.633 98.028 C 320.929 98.563,321.178 98.800,321.186 98.555 C 321.211 97.765,315.275 91.336,312.883 89.563 C 312.507 89.285,313.976 90.857,316.147 93.056 M77.387 94.500 L 75.000 97.000 77.500 94.613 C 78.875 93.299,80.000 92.174,80.000 92.113 C 80.000 91.817,79.605 92.178,77.387 94.500 M122.000 92.724 C 122.000 92.956,122.317 93.247,122.705 93.370 C 123.093 93.493,124.263 94.377,125.305 95.333 C 126.347 96.290,127.200 96.938,127.200 96.774 C 127.200 96.609,126.345 95.778,125.300 94.927 C 122.234 92.429,122.000 92.273,122.000 92.724 M265.265 99.463 L 263.000 101.727 265.200 99.797 C 266.410 98.736,267.571 97.717,267.780 97.534 C 267.989 97.350,268.018 97.200,267.845 97.200 C 267.671 97.200,266.510 98.219,265.265 99.463 M128.434 97.819 C 128.453 98.028,130.298 99.799,132.534 101.754 C 135.167 104.055,135.684 104.422,134.000 102.795 C 129.135 98.095,128.400 97.437,128.434 97.819 M259.785 104.500 L 257.800 106.600 259.900 104.615 C 261.851 102.771,262.183 102.400,261.885 102.400 C 261.822 102.400,260.877 103.345,259.785 104.500 M76.343 105.433 C 76.570 105.891,77.017 106.482,77.335 106.746 C 77.653 107.010,78.138 107.766,78.411 108.426 C 78.684 109.086,78.987 109.547,79.083 109.450 C 79.180 109.353,78.979 108.763,78.636 108.137 C 77.869 106.736,75.748 104.235,76.343 105.433 M318.034 106.553 L 317.069 107.800 318.213 106.712 C 318.843 106.114,319.277 105.553,319.179 105.465 C 319.080 105.377,318.565 105.867,318.034 106.553 M141.547 110.217 C 144.268 112.848,146.643 115.057,146.825 115.126 C 147.007 115.195,145.602 113.755,143.703 111.926 C 141.805 110.097,139.790 108.143,139.226 107.583 C 138.662 107.024,137.840 106.312,137.400 106.001 C 136.960 105.690,138.826 107.587,141.547 110.217 M228.200 135.600 C 202.583 161.218,198.856 164.800,197.809 164.800 C 196.765 164.800,193.506 161.705,171.808 140.102 L 147.000 115.403 171.799 140.302 C 193.614 162.205,196.742 165.200,197.799 165.200 C 198.856 165.199,202.488 161.710,228.085 136.100 C 260.598 103.571,257.790 106.400,257.566 106.400 C 257.473 106.400,244.259 119.540,228.200 135.600 M81.528 113.436 C 82.322 114.611,83.600 115.898,83.600 115.522 C 83.600 115.425,82.946 114.638,82.147 113.773 C 80.976 112.506,80.856 112.440,81.528 113.436 M312.050 115.486 C 311.164 116.523,310.533 117.467,310.649 117.582 C 310.765 117.698,311.042 117.469,311.263 117.073 C 311.485 116.676,312.210 115.733,312.875 114.976 C 313.539 114.219,313.988 113.600,313.873 113.600 C 313.757 113.600,312.937 114.449,312.050 115.486 M85.148 118.200 C 85.394 118.640,86.337 119.810,87.246 120.800 C 89.231 122.964,88.443 121.672,86.251 119.169 C 85.399 118.196,84.903 117.760,85.148 118.200 M308.575 120.100 L 307.400 121.400 308.700 120.225 C 309.415 119.579,310.000 118.994,310.000 118.925 C 310.000 118.616,309.670 118.888,308.575 120.100 M89.481 123.787 C 89.877 124.331,90.366 124.781,90.570 124.787 C 90.773 124.794,90.517 124.350,90.000 123.800 C 88.801 122.523,88.557 122.518,89.481 123.787 M305.544 123.900 C 304.393 125.289,303.906 126.000,304.104 126.000 C 304.214 126.000,304.786 125.370,305.373 124.600 C 306.463 123.171,306.595 122.632,305.544 123.900 M91.864 126.399 C 92.487 127.060,93.047 127.600,93.108 127.600 C 93.457 127.600,91.849 125.628,91.341 125.433 C 91.006 125.304,91.241 125.739,91.864 126.399 M94.383 129.500 C 95.126 130.435,95.806 131.200,95.894 131.200 C 96.177 131.200,94.463 128.949,93.735 128.364 C 93.348 128.054,93.640 128.565,94.383 129.500 M300.527 129.800 C 299.637 130.790,299.043 131.600,299.206 131.600 C 299.370 131.600,300.167 130.790,300.979 129.800 C 301.790 128.810,302.384 128.000,302.299 128.000 C 302.214 128.000,301.416 128.810,300.527 129.800 M100.800 136.600 C 101.546 137.370,102.247 138.000,102.357 138.000 C 102.467 138.000,101.946 137.370,101.200 136.600 C 100.454 135.830,99.753 135.200,99.643 135.200 C 99.533 135.200,100.054 135.830,100.800 136.600 M293.785 137.300 L 291.800 139.400 293.900 137.415 C 295.851 135.571,296.183 135.200,295.885 135.200 C 295.822 135.200,294.877 136.145,293.785 137.300 M114.200 150.400 C 119.917 156.120,124.671 160.800,124.764 160.800 C 124.857 160.800,124.858 160.721,124.767 160.625 C 121.866 157.579,104.196 140.000,104.035 140.000 C 103.909 140.000,108.483 144.680,114.200 150.400 M287.188 144.300 L 284.600 147.000 287.300 144.412 C 288.785 142.988,290.000 141.773,290.000 141.712 C 290.000 141.417,289.593 141.792,287.188 144.300 M258.599 172.900 L 233.000 198.600 258.700 173.001 C 272.835 158.922,284.400 147.357,284.400 147.301 C 284.400 147.021,282.395 149.010,258.599 172.900 M143.700 179.802 C 161.230 197.427,162.400 198.691,162.400 200.004 C 162.400 201.327,160.755 203.050,133.214 230.583 C 117.162 246.631,104.077 259.810,104.136 259.870 C 104.739 260.473,162.613 201.418,162.713 200.098 C 162.824 198.614,162.654 198.430,143.913 179.800 L 125.000 161.000 143.700 179.802 M232.864 200.001 C 232.802 201.348,233.908 202.506,261.500 230.001 L 290.200 258.600 261.722 230.000 C 236.350 204.519,233.227 201.247,233.086 200.000 L 232.928 198.600 232.864 200.001 M171.799 259.700 L 147.000 284.600 171.600 260.107 C 191.661 240.133,196.445 235.565,197.530 235.351 C 198.838 235.092,199.073 235.300,211.930 248.041 L 225.000 260.994 212.002 247.897 C 200.675 236.483,198.850 234.800,197.801 234.800 C 196.742 234.800,193.631 237.779,171.799 259.700 M101.586 262.700 L 99.400 265.000 101.700 262.814 C 102.965 261.611,104.000 260.576,104.000 260.514 C 104.000 260.217,103.618 260.563,101.586 262.700 M293.800 262.800 C 294.883 263.900,295.860 264.800,295.970 264.800 C 296.080 264.800,295.283 263.900,294.200 262.800 C 293.117 261.700,292.140 260.800,292.030 260.800 C 291.920 260.800,292.717 261.700,293.800 262.800 M241.200 277.400 C 250.108 286.310,257.486 293.600,257.596 293.600 C 257.706 293.600,250.508 286.310,241.600 277.400 C 232.692 268.490,225.314 261.200,225.204 261.200 C 225.094 261.200,232.292 268.490,241.200 277.400 M98.063 266.400 C 97.575 267.060,97.242 267.600,97.322 267.600 C 97.402 267.600,97.949 267.060,98.537 266.400 C 99.125 265.740,99.459 265.200,99.278 265.200 C 99.098 265.200,98.551 265.740,98.063 266.400 M296.400 265.725 C 296.400 265.794,296.973 266.379,297.674 267.025 L 298.949 268.200 297.974 266.922 C 297.147 265.837,296.400 265.269,296.400 265.725 M94.226 270.700 C 93.362 271.805,93.293 271.990,93.963 271.404 C 94.765 270.704,95.823 269.200,95.514 269.200 C 95.451 269.200,94.872 269.875,94.226 270.700 M91.594 273.907 C 89.372 276.266,88.446 277.594,90.418 275.592 C 92.283 273.701,93.402 272.395,93.149 272.407 C 93.067 272.410,92.367 273.085,91.594 273.907 M304.791 275.188 C 305.257 275.841,305.842 276.502,306.091 276.656 C 306.341 276.811,306.041 276.276,305.425 275.468 C 304.088 273.715,303.584 273.492,304.791 275.188 M86.319 280.320 C 85.504 281.354,84.056 283.190,83.100 284.400 C 81.185 286.825,80.661 287.600,80.934 287.600 C 81.034 287.600,82.160 286.205,83.438 284.500 C 84.715 282.795,86.391 280.725,87.161 279.900 C 87.932 279.075,88.391 278.409,88.181 278.420 C 87.972 278.431,87.133 279.286,86.319 280.320 M308.622 280.009 C 309.294 280.774,310.337 282.141,310.939 283.047 C 311.542 283.952,312.498 285.122,313.064 285.647 C 313.630 286.171,313.012 285.160,311.690 283.400 C 310.369 281.640,308.863 279.844,308.344 279.409 C 307.723 278.888,307.818 279.093,308.622 280.009 M143.391 288.100 L 140.200 291.400 143.588 288.200 C 145.452 286.440,147.057 284.955,147.155 284.900 C 147.253 284.845,147.164 284.800,146.957 284.800 C 146.750 284.800,145.145 286.285,143.391 288.100 M137.600 293.470 L 136.600 294.492 137.700 293.800 C 138.305 293.419,138.800 292.949,138.800 292.754 C 138.800 292.270,138.740 292.305,137.600 293.470 M76.636 294.031 C 76.066 294.708,75.600 295.458,75.600 295.697 C 75.600 295.937,75.652 296.058,75.716 295.967 C 75.780 295.875,76.329 295.125,76.937 294.300 C 78.269 292.490,78.077 292.318,76.636 294.031 M318.244 293.580 C 318.488 293.921,318.888 294.560,319.132 295.000 C 319.376 295.440,319.581 295.585,319.588 295.322 C 319.595 295.060,319.195 294.421,318.700 293.903 C 318.205 293.385,318.000 293.240,318.244 293.580 M134.400 296.600 C 133.428 297.590,132.723 298.400,132.833 298.400 C 132.943 298.400,133.828 297.590,134.800 296.600 C 135.772 295.610,136.477 294.800,136.367 294.800 C 136.257 294.800,135.372 295.610,134.400 296.600 M261.000 296.800 C 261.859 297.680,262.652 298.400,262.762 298.400 C 262.872 298.400,262.259 297.680,261.400 296.800 C 260.541 295.920,259.748 295.200,259.638 295.200 C 259.528 295.200,260.141 295.920,261.000 296.800 M74.840 297.840 C 74.558 298.621,74.415 299.348,74.523 299.457 C 74.632 299.565,74.936 298.999,75.200 298.200 C 75.825 296.306,75.509 295.990,74.840 297.840 M264.200 299.854 C 264.420 300.048,265.229 300.745,265.999 301.403 L 267.397 302.600 266.399 301.463 C 265.849 300.838,265.040 300.141,264.600 299.914 C 264.160 299.688,263.980 299.661,264.200 299.854 M320.893 300.800 C 320.893 301.570,320.975 301.885,321.076 301.500 C 321.176 301.115,321.176 300.485,321.076 300.100 C 320.975 299.715,320.893 300.030,320.893 300.800 M128.894 301.612 C 128.175 302.265,127.737 302.800,127.919 302.800 C 128.101 302.800,128.768 302.260,129.400 301.600 C 130.870 300.065,130.586 300.072,128.894 301.612 M74.721 303.000 C 74.957 303.440,79.614 308.210,85.071 313.600 L 94.993 323.400 84.796 313.007 C 79.188 307.291,74.531 302.521,74.446 302.407 C 74.361 302.293,74.485 302.560,74.721 303.000 M270.805 305.480 C 270.808 305.656,271.438 306.207,272.205 306.704 C 274.003 307.868,274.000 307.600,272.200 306.227 C 271.430 305.640,270.802 305.303,270.805 305.480 M274.000 307.769 C 274.000 308.037,276.434 310.400,276.709 310.400 C 276.845 310.400,276.346 309.770,275.600 309.000 C 274.277 307.635,274.000 307.422,274.000 307.769 M118.800 310.060 C 118.250 310.518,117.451 311.138,117.024 311.437 C 116.597 311.737,116.328 312.061,116.425 312.158 C 116.522 312.255,117.411 311.634,118.400 310.779 C 120.251 309.180,120.591 308.568,118.800 310.060 M277.200 310.490 C 277.200 310.577,278.235 311.528,279.500 312.603 C 280.765 313.679,281.440 314.144,281.000 313.636 C 280.164 312.671,277.200 310.217,277.200 310.490 M112.100 315.196 C 111.385 315.632,110.800 316.075,110.800 316.181 C 110.800 316.286,111.430 316.001,112.200 315.547 C 112.970 315.093,113.600 314.649,113.600 314.560 C 113.600 314.305,113.474 314.358,112.100 315.196 M288.400 318.942 C 288.400 319.249,291.223 320.910,291.417 320.717 C 291.513 320.621,290.873 320.139,289.996 319.646 C 289.118 319.152,288.400 318.836,288.400 318.942 M300.427 322.609 C 299.483 323.276,298.733 323.509,298.027 323.357 C 297.225 323.184,297.132 323.229,297.600 323.562 C 298.554 324.239,299.301 324.062,300.800 322.800 C 302.492 321.376,302.307 321.281,300.427 322.609 " stroke="none" fill="#6c6c6c" fill-rule="evenodd"></path><path id="path4" d="M298.200 74.800 C 298.064 75.020,297.183 75.394,296.243 75.631 C 295.303 75.867,293.919 76.587,293.167 77.230 C 292.415 77.872,291.336 78.399,290.770 78.399 C 290.198 78.400,289.335 78.831,288.830 79.368 C 288.330 79.900,287.399 80.552,286.760 80.816 C 286.122 81.081,285.600 81.451,285.600 81.638 C 285.600 81.826,285.028 82.275,284.328 82.637 C 283.205 83.218,281.055 84.812,278.600 86.886 C 278.160 87.257,276.900 88.168,275.800 88.909 C 274.700 89.651,273.627 90.640,273.415 91.107 C 273.203 91.574,272.615 92.060,272.108 92.187 C 271.287 92.393,270.049 93.446,264.843 98.363 C 264.049 99.113,262.050 100.921,260.400 102.381 C 257.300 105.124,253.513 108.639,252.315 109.887 C 251.938 110.279,251.444 110.780,251.218 111.000 C 250.992 111.220,250.040 112.180,249.103 113.134 C 224.070 138.615,198.664 163.600,197.786 163.600 C 197.092 163.600,196.205 162.999,194.983 161.700 C 194.001 160.655,193.036 159.647,192.838 159.460 C 192.345 158.992,190.953 157.598,190.540 157.158 C 190.353 156.959,187.725 154.377,184.700 151.420 C 181.675 148.463,179.200 145.854,179.200 145.622 C 179.200 145.390,179.016 145.200,178.791 145.200 C 178.259 145.200,174.000 140.941,174.000 140.409 C 174.000 140.184,173.722 140.000,173.381 140.000 C 173.041 140.000,172.456 139.461,172.081 138.803 C 171.707 138.144,171.258 137.604,171.084 137.603 C 170.909 137.601,168.886 135.665,166.586 133.300 C 164.286 130.935,162.242 128.847,162.042 128.660 C 161.595 128.241,160.200 126.847,159.740 126.360 C 159.553 126.163,156.925 123.578,153.900 120.617 C 150.875 117.657,148.400 115.047,148.400 114.817 C 148.400 114.588,148.240 114.400,148.044 114.400 C 147.848 114.400,146.723 113.417,145.544 112.216 C 142.508 109.122,142.628 109.240,141.079 107.857 C 139.351 106.314,138.735 105.753,138.137 105.174 C 137.882 104.928,137.053 104.158,136.294 103.463 C 135.536 102.768,133.344 100.760,131.423 99.000 C 129.502 97.240,127.211 95.110,126.331 94.267 C 125.451 93.424,124.207 92.552,123.566 92.328 C 122.925 92.105,122.400 91.751,122.400 91.542 C 122.400 91.007,120.492 89.282,118.600 88.107 C 117.720 87.560,116.820 86.908,116.600 86.657 C 115.804 85.748,112.571 83.303,111.300 82.649 C 110.585 82.281,110.000 81.816,110.000 81.617 C 110.000 81.417,109.595 81.132,109.100 80.983 C 108.605 80.834,107.660 80.213,107.000 79.604 C 106.340 78.994,105.154 78.381,104.364 78.242 C 103.574 78.102,102.517 77.550,102.014 77.015 C 101.511 76.479,100.537 75.931,99.850 75.796 C 99.162 75.661,98.106 75.360,97.502 75.127 C 96.621 74.788,96.187 74.847,95.302 75.423 C 93.056 76.887,73.656 96.638,73.378 97.743 C 72.779 100.134,75.263 107.312,76.866 107.821 C 77.269 107.949,77.760 108.710,77.989 109.561 C 78.213 110.392,78.772 111.413,79.231 111.828 C 79.690 112.244,80.313 113.175,80.615 113.898 C 80.917 114.620,81.442 115.318,81.782 115.448 C 82.122 115.579,82.400 115.868,82.400 116.092 C 82.400 116.574,86.420 121.600,86.806 121.600 C 86.952 121.600,87.283 122.063,87.541 122.630 C 88.236 124.155,90.420 126.752,91.221 127.007 C 91.606 127.129,92.027 127.652,92.156 128.169 C 92.286 128.686,93.569 130.344,95.008 131.854 C 96.447 133.364,98.743 135.814,100.112 137.297 C 101.480 138.781,115.875 153.317,132.100 169.600 C 151.344 188.913,161.600 199.482,161.600 200.001 C 161.600 200.704,155.199 207.187,111.922 250.320 C 111.635 250.606,111.063 251.146,110.651 251.520 C 110.239 251.894,109.699 252.438,109.451 252.728 C 109.203 253.019,108.663 253.559,108.251 253.928 C 107.839 254.298,107.299 254.835,107.051 255.121 C 106.803 255.408,105.610 256.689,104.400 257.968 C 103.190 259.247,101.120 261.500,99.800 262.974 C 98.480 264.449,96.448 266.640,95.285 267.843 C 94.121 269.047,92.861 270.528,92.485 271.136 C 92.108 271.744,91.065 272.901,90.167 273.707 C 89.269 274.513,88.207 275.898,87.806 276.786 C 87.406 277.674,86.836 278.400,86.539 278.400 C 86.243 278.400,85.999 278.535,85.998 278.700 C 85.997 278.865,85.412 279.664,84.698 280.476 C 83.405 281.945,81.393 284.663,80.564 286.060 C 80.325 286.464,79.848 287.111,79.505 287.497 C 79.162 287.884,78.483 289.055,77.997 290.100 C 77.510 291.145,76.954 292.000,76.761 292.000 C 74.867 292.000,72.529 300.182,73.610 303.027 C 74.237 304.674,94.035 324.293,95.423 324.641 C 97.005 325.039,100.748 324.188,101.810 323.191 C 102.292 322.737,103.387 322.177,104.243 321.945 C 105.100 321.713,106.160 321.192,106.600 320.788 C 107.789 319.695,110.004 318.140,111.700 317.208 C 112.525 316.755,113.200 316.220,113.200 316.019 C 113.200 315.818,113.528 315.550,113.928 315.423 C 114.329 315.296,115.184 314.679,115.828 314.053 C 116.473 313.427,117.594 312.610,118.321 312.236 C 119.047 311.863,119.739 311.304,119.858 310.994 C 119.977 310.684,120.408 310.324,120.816 310.195 C 121.225 310.065,121.676 309.592,121.818 309.143 C 121.961 308.694,122.656 308.085,123.364 307.789 C 124.071 307.494,125.442 306.475,126.409 305.526 C 127.377 304.577,128.707 303.394,129.366 302.897 C 130.025 302.400,132.506 300.112,134.880 297.812 C 137.254 295.512,139.545 293.444,139.971 293.215 C 140.397 292.987,140.860 292.441,141.000 292.000 C 141.140 291.560,141.441 291.200,141.670 291.200 C 141.978 291.200,153.491 280.007,159.568 273.800 C 160.279 273.074,161.552 271.807,162.030 271.350 C 162.644 270.765,170.783 262.625,171.290 262.090 C 171.724 261.634,173.087 260.265,173.633 259.740 C 174.073 259.316,189.818 243.569,190.432 242.940 C 191.108 242.246,192.434 240.924,192.838 240.540 C 193.036 240.353,194.001 239.345,194.983 238.300 C 197.971 235.123,195.505 233.096,227.336 264.900 C 253.549 291.090,264.331 301.624,266.549 303.207 C 267.017 303.541,268.192 304.595,269.161 305.549 C 270.130 306.503,271.409 307.454,272.004 307.661 C 272.599 307.869,273.311 308.460,273.587 308.976 C 273.863 309.491,274.801 310.428,275.671 311.057 C 276.542 311.686,278.007 312.809,278.927 313.553 C 279.847 314.297,281.005 315.091,281.500 315.317 C 281.995 315.543,282.400 315.875,282.400 316.054 C 282.400 316.233,282.973 316.676,283.674 317.038 C 284.375 317.401,286.060 318.560,287.419 319.614 C 288.777 320.669,290.570 321.720,291.401 321.949 C 292.233 322.179,293.293 322.713,293.757 323.137 C 294.220 323.560,295.574 324.187,296.765 324.529 C 299.901 325.429,300.323 325.121,311.943 313.434 L 322.086 303.233 321.934 300.117 C 321.770 296.749,320.597 293.728,318.951 292.433 C 318.477 292.060,317.687 290.820,317.195 289.677 C 316.704 288.535,316.138 287.600,315.938 287.600 C 315.738 287.600,315.463 287.285,315.326 286.900 C 314.895 285.692,309.625 278.908,308.589 278.229 C 308.045 277.873,307.600 277.244,307.600 276.832 C 307.600 276.419,306.520 274.950,305.200 273.567 C 303.880 272.184,302.800 270.940,302.800 270.801 C 302.800 270.663,301.765 269.458,300.500 268.123 C 294.923 262.238,293.630 260.803,293.228 260.053 C 292.993 259.614,292.441 259.140,292.000 259.000 C 291.560 258.860,291.200 258.543,291.200 258.296 C 291.200 258.048,290.215 256.891,289.010 255.725 C 287.806 254.558,286.526 253.153,286.164 252.602 C 285.803 252.051,285.370 251.600,285.202 251.600 C 284.708 251.600,279.200 246.136,279.200 245.646 C 279.200 245.401,279.016 245.200,278.791 245.200 C 278.259 245.200,274.000 240.941,274.000 240.409 C 274.000 240.184,273.722 240.000,273.381 240.000 C 273.041 240.000,272.456 239.461,272.081 238.803 C 271.707 238.144,271.258 237.604,271.084 237.603 C 270.909 237.601,268.886 235.665,266.586 233.300 C 264.286 230.935,262.242 228.847,262.042 228.660 C 261.667 228.308,260.414 227.061,259.630 226.260 C 259.042 225.660,243.287 209.904,242.830 209.460 C 242.382 209.025,241.013 207.656,240.430 207.060 C 240.182 206.807,238.724 205.369,237.190 203.864 C 233.491 200.236,233.491 199.764,237.190 196.136 C 238.724 194.631,240.155 193.220,240.370 193.000 C 240.911 192.445,242.517 190.841,243.000 190.372 C 243.547 189.841,259.316 174.073,259.740 173.633 C 260.265 173.087,261.634 171.724,262.090 171.290 C 262.625 170.783,270.669 162.739,271.241 162.140 C 271.734 161.623,273.096 160.258,273.633 159.740 C 273.911 159.473,287.824 145.271,289.191 143.860 C 289.372 143.673,289.853 143.185,290.260 142.775 C 290.667 142.366,292.620 140.290,294.600 138.161 C 296.580 136.033,299.221 133.216,300.470 131.902 C 301.718 130.588,302.952 128.998,303.213 128.369 C 303.473 127.741,303.999 127.127,304.382 127.006 C 305.130 126.768,307.600 123.897,307.600 123.265 C 307.600 123.056,308.426 122.010,309.435 120.942 C 310.445 119.874,311.825 118.145,312.503 117.100 C 313.180 116.055,313.851 115.200,313.993 115.200 C 314.135 115.200,314.559 114.615,314.935 113.900 C 315.311 113.185,316.064 111.988,316.609 111.241 C 317.154 110.493,317.600 109.470,317.600 108.968 C 317.600 108.408,317.907 107.956,318.394 107.802 C 319.741 107.374,321.999 102.062,322.003 99.311 L 322.006 97.000 310.657 85.700 C 299.671 74.762,298.732 73.940,298.200 74.800 M99.800 76.828 C 100.460 77.240,102.299 78.238,103.886 79.046 C 105.474 79.854,107.094 80.813,107.486 81.178 C 107.879 81.543,109.460 82.673,111.000 83.689 C 112.540 84.705,114.188 85.887,114.663 86.316 C 115.137 86.745,116.667 87.971,118.063 89.040 C 119.458 90.109,120.870 91.272,121.200 91.623 C 121.530 91.974,122.846 93.043,124.125 93.998 C 125.403 94.954,126.663 96.034,126.925 96.399 C 127.186 96.763,127.702 97.228,128.071 97.431 C 128.644 97.746,133.473 102.139,139.386 107.725 C 140.274 108.564,153.512 121.749,168.805 137.025 C 193.159 161.353,196.757 164.800,197.801 164.800 C 198.845 164.800,202.638 161.165,228.396 135.476 C 255.370 108.574,265.822 98.416,267.547 97.425 C 267.906 97.219,268.830 96.394,269.600 95.593 C 270.370 94.792,271.630 93.718,272.400 93.206 C 273.170 92.695,273.980 92.065,274.200 91.806 C 274.420 91.548,275.865 90.361,277.411 89.168 C 278.957 87.976,280.487 86.775,280.811 86.499 C 282.170 85.344,286.428 82.400,286.739 82.400 C 286.924 82.400,287.407 82.035,287.811 81.588 C 288.481 80.847,297.807 76.000,298.562 76.000 C 299.771 76.000,320.676 96.768,321.078 98.369 C 321.432 99.778,319.404 105.432,317.942 107.114 C 317.314 107.837,316.800 108.633,316.800 108.885 C 316.800 109.391,314.372 113.118,312.805 115.019 C 312.252 115.689,311.440 116.753,311.000 117.383 C 310.263 118.437,308.093 121.053,306.900 122.324 C 306.625 122.617,306.400 122.997,306.400 123.169 C 306.400 123.341,305.500 124.434,304.400 125.600 C 303.300 126.766,302.400 127.840,302.400 127.987 C 302.400 128.135,301.455 129.260,300.300 130.488 C 299.145 131.717,297.215 133.864,296.011 135.261 C 294.807 136.657,280.227 151.444,263.611 168.120 C 233.854 197.984,233.400 198.464,233.400 200.014 C 233.400 201.563,233.844 202.033,262.420 230.694 C 278.381 246.702,292.781 261.255,294.420 263.033 C 298.893 267.887,302.163 271.597,302.509 272.213 C 302.679 272.515,303.624 273.603,304.609 274.631 C 305.594 275.659,306.400 276.668,306.400 276.874 C 306.400 277.080,307.262 278.182,308.316 279.324 C 311.112 282.354,314.243 286.679,317.800 292.426 C 320.601 296.952,321.644 300.361,320.830 302.328 C 320.234 303.767,299.949 324.000,299.103 324.000 C 297.854 324.000,289.505 320.100,288.164 318.890 C 287.236 318.052,284.391 316.055,282.771 315.104 C 281.547 314.386,277.112 310.825,275.000 308.864 C 274.340 308.252,273.170 307.319,272.400 306.791 C 271.630 306.264,270.280 305.158,269.400 304.333 C 268.520 303.509,267.080 302.241,266.200 301.514 C 262.783 298.695,256.793 292.833,228.334 264.462 C 199.074 235.292,198.859 235.088,197.534 235.349 C 196.439 235.565,191.247 240.560,168.600 263.183 C 153.420 278.346,140.273 291.438,139.384 292.276 C 132.461 298.805,128.267 302.625,127.869 302.763 C 127.611 302.853,127.186 303.227,126.925 303.595 C 126.663 303.963,125.403 305.046,124.125 306.002 C 122.846 306.957,121.530 308.022,121.200 308.369 C 119.804 309.836,113.977 314.388,111.205 316.175 C 109.558 317.237,108.028 318.348,107.805 318.644 C 107.582 318.939,105.780 320.024,103.800 321.054 C 101.820 322.084,99.750 323.167,99.200 323.461 C 96.440 324.936,96.323 324.854,85.120 313.705 C 73.150 301.792,73.381 302.157,74.952 297.661 C 75.514 296.052,76.520 294.114,77.187 293.354 C 77.854 292.594,78.400 291.783,78.400 291.551 C 78.400 291.320,78.913 290.381,79.539 289.465 C 80.165 288.549,80.930 287.422,81.239 286.961 C 82.361 285.282,85.702 280.966,86.935 279.600 C 87.631 278.830,88.729 277.422,89.375 276.470 C 90.022 275.519,90.832 274.529,91.175 274.270 C 91.519 274.012,92.516 272.900,93.391 271.800 C 94.266 270.700,95.526 269.243,96.191 268.562 C 96.856 267.881,97.918 266.711,98.550 265.962 C 101.730 262.196,110.713 253.034,135.372 228.404 C 160.853 202.953,162.400 201.327,162.400 200.007 C 162.400 198.687,160.721 196.924,133.082 169.204 C 116.958 153.032,102.288 138.180,100.482 136.200 C 98.677 134.220,96.692 132.060,96.071 131.400 C 95.450 130.740,94.235 129.310,93.371 128.223 C 92.507 127.135,91.350 125.772,90.800 125.193 C 89.618 123.948,86.278 119.734,84.647 117.429 C 84.013 116.533,83.023 115.256,82.447 114.591 C 81.871 113.927,80.770 112.339,80.000 111.062 C 79.230 109.786,78.199 108.170,77.709 107.471 C 76.134 105.224,74.000 100.213,74.000 98.761 C 74.000 98.129,77.225 94.632,85.100 86.726 C 97.354 74.423,96.677 74.879,99.800 76.828 " stroke="none" fill="#858585" fill-rule="evenodd"></path></g></svg>